<svg xmlns="http://www.w3.org/2000/svg" viewBox="190 140 110 110">
    <g id="freepik--Screen--inject-34">
        <path d="M215.49,225.68a10.05,10.05,0,0,1-8.71-15.05l28.79-50.22a9.94,9.94,0,0,1,8.68-5h0a9.93,9.93,0,0,1,8.68,5l29.1,50.05a10,10,0,0,1-8.65,15.1l-57.9.18Zm28.8-67.32h0a7,7,0,0,0-6.09,3.54l-28.79,50.22a7.05,7.05,0,0,0,6.11,10.56h0l57.9-.18a7,7,0,0,0,6.07-10.59l-29.1-50A7,7,0,0,0,244.29,158.36Z" style="fill:#635DFF">
        </path>
        <path d="M240.28,209.42a3.71,3.71,0,0,1,3.85-3.72,3.72,3.72,0,1,1,.06,7.43A3.74,3.74,0,0,1,240.28,209.42Zm.12-30.16,7.1,0-1,22.45-4.75,0Z" style="fill:#635DFF">
        </path>
    </g>
</svg>
